<svg width="390" height="86" viewBox="0 0 390 86" fill="none" xmlns="http://www.w3.org/2000/svg">
<path d="M-19 24.0221C29.2282 24.0221 124.488 23.3134 155.342 29.9278C193.91 38.1959 230.903 63 268.684 63C306.465 63 311.974 35.8336 354.084 29.9278C387.772 25.2032 404.065 24.0221 408 24.0221" stroke="#27833F" stroke-width="1.5"/>
<path d="M-18 37H62.6372C85.4515 36.4762 134.699 34.8 149.175 32.2857C167.269 29.1429 189.69 24.0357 195.983 22.0714C202.277 20.1071 210.931 15 226.271 15C241.612 15 259.313 27.1786 271.9 27.1786C284.488 27.1786 306.122 22.0714 315.169 22.0714C339.3 22.0714 351.357 37 408 37" stroke="#1C5D2D" stroke-width="1.5"/>
<path d="M-18 49H60.7698C95.4929 48.7829 173.234 44.7661 206.414 30.4362C247.888 12.5238 265.893 14.8035 273.288 15.4549C280.682 16.1062 295.793 17.409 314.119 30.4362C332.445 43.4634 368.454 48.6743 408 49" stroke="#11371B" stroke-width="1.5"/>
<path d="M-18 59.4774C0.948786 58.4084 42.2507 53.705 55.8681 43.443C72.8899 30.6155 92.4888 8.07364 110.466 3.03634C128.481 -2.01129 142.583 2.07428 167.955 18.1087C193.327 34.1431 212.597 49.2154 258.524 55.6291C295.265 60.7602 372.817 60.3326 407 59.4774" stroke="#34A853" stroke-width="1.5"/>
<path d="M-19 72C1.2659 71.3006 45.2124 68.0554 58.871 60.6698C75.9443 51.4377 97.1818 37.5897 118.836 38.0093C140.49 38.429 161.311 45.1432 175.886 50.5985C190.46 56.0538 230.021 72 302.062 72C324.049 72 368.412 71.0208 407 72" stroke="#195128" stroke-width="1.5"/>
<path d="M-19 84.9501C-11.088 85.235 6.06866 84.4372 11.3989 78.9667C18.0616 72.1286 24.3079 67 33.4692 67C42.6305 67 57.1292 84.9501 77.61 84.9501C85.6053 84.9501 297.203 83.9528 407 84.9501" stroke="#0E2E17" stroke-width="1.5"/>
</svg>
