<svg fill="none" height="24" viewBox="0 0 24 24" width="24" xmlns="http://www.w3.org/2000/svg"><path clip-rule="evenodd" d="m2 12c0-4.71405 0-7.07107 1.46447-8.53553 1.46446-1.46447 3.82148-1.46447 8.53553-1.46447 4.714 0 7.0711 0 8.5355 1.46447 1.4645 1.46446 1.4645 3.82148 1.4645 8.53553 0 4.714 0 7.0711-1.4645 8.5355-1.4644 1.4645-3.8215 1.4645-8.5355 1.4645-4.71405 0-7.07107 0-8.53553-1.4645-1.46447-1.4644-1.46447-3.8215-1.46447-8.5355zm15.75 0c0 .4142-.3358.75-.75.75h-5.1893l1.7196 1.7197c.2929.2929.2929.7677 0 1.0606s-.7677.2929-1.0606 0l-3.00003-3c-.14065-.1406-.21967-.3314-.21967-.5303s.07902-.3897.21967-.5303l3.00003-3.00003c.2929-.29289.7677-.29289 1.0606 0s.2929.76777 0 1.06066l-1.7196 1.71967h5.1893c.4142 0 .75.3358.75.75zm-10-4c0-.41421-.33579-.75-.75-.75s-.75.33579-.75.75v8c0 .4142.33579.75.75.75s.75-.3358.75-.75z" fill="#1c274c" fill-rule="evenodd"/></svg>